<svg id="レイヤー_1" data-name="レイヤー 1" xmlns="http://www.w3.org/2000/svg" viewBox="0 0 512 512"><defs><style>.cls-1{stroke:#fff;stroke-miterlimit:10;stroke-width:5px;}</style></defs><title>アートボード 1</title><path class="cls-1" d="M215,71.05l-89,89H24A24,24,0,0,0,0,184V328a24,24,0,0,0,24,24H126.06L215,441c15,15,41,4.47,41-17V88C256,66.56,230,56,215,71.05ZM461.64,256l45.64-45.64a16.14,16.14,0,0,0,0-22.82l-22.82-22.82a16.14,16.14,0,0,0-22.82,0L416,210.36l-45.64-45.64a16.14,16.14,0,0,0-22.82,0l-22.82,22.82a16.14,16.14,0,0,0,0,22.82L370.36,256l-45.63,45.63a16.14,16.14,0,0,0,0,22.82l22.82,22.82a16.14,16.14,0,0,0,22.82,0L416,301.64l45.64,45.64a16.14,16.14,0,0,0,22.82,0l22.82-22.82a16.14,16.14,0,0,0,0-22.82Z"/></svg>